<svg data-name=" 1" xmlns="http://www.w3.org/2000/svg" viewBox="0 0 494.95 347.6"
    width="60"
    height="40">
    <path d="M327.45 296.51l-11.5 51.09h47.23s7.39-25.69 9-34c-6.15-7.23-31.73-17.29-44.73-17.09z"
        fill="#00f">
    </path>
    <path
        d="M479.88 165.7c-14.5-5-29.55-4.4-34-14.75-3.21-7.42 6.83-19.55 11.37-20 1.13 13.28 13.75 14.74 24.65-1.71 6.5-9.82 8.3-24.67 8.28-41.62-5.6 7.83-19.91 16.11-36 19-12 2.18-14.54 11.53-8.88 16.42a62.13 62.13 0 0 1 24.81-8.83c-34.21 14.55-40.9 37.75-32.39 49 11.08 14.7 42.87 6.73 34.93 29.07-4.48 12.61-23.66 16.81-40.34 18C382.2 127.87 287.53 67.01 178.78 68.17c-3.93 26.1-17 35.68-17 35.68C188.68 41.27 132.47.85 96.47-.01c29.86 21.08 47 53.71 30.73 88.77l-65 41c-35.08 8.09-53.53-23.53-60.55-49-10.54 62.36 32.49 84.31 63.78 87.72 1.43 17.19-.09 9.27 9 59.51-18.94 12.24-23.68 39.64-8.78 52 11.45 9.47 29.68 5.5 40.73-8.85 7.17-9.32 9.52-20.72 7.16-30.17 5 6.57 8.35 16.18 1.92 29.61 11.19-.09 39-10.62 39-10.62l16.06-73.92-11.49-46.32 20.84 38.31-7.84 80.18c2.16 9.35 51.52 89.4 51.52 89.4h61.26l-29.25-81 14.7 14.26c21.32-2.05 106.23-5.27 146.69 66.73h65.68c-10.68-46-22.14-81.69-36.48-111.58a124.32 124.32 0 0 0 29.4-17c28.76-22.14 21.48-47.42 4.33-53.32zM104.67 285.14l-1.67 27 32.71 19.2 48.16-20.74-20-21.37-.6-18.72m-88.39-2.48c-7.09-5.87-6.11-18.44 2.1-26 1.85 10.25 2 19.51 16 25.07-5.84 4.43-13.18 5.02-18.15.91z"
        fill="#00f"></path>
</svg>